<?xml version="1.0" encoding="UTF-8"?>
<svg xmlns="http://www.w3.org/2000/svg" viewBox="0 0 360 360" width="360" height="360">
  <rect width="360" height="360" fill="#000000"></rect>
  <g transform="translate(0, 80)">
    <path d="M83.97 138.56L58.72 138.56L58.72 48.32L83.97 48.32L83.97 57.73L69.09 57.73L69.09 129.15L83.97 129.15L83.97 138.56Z M122.86 145.28L112.02 145.28L119.70 124.93L99.92 75.20L110.96 75.20L122.19 104.96Q123.06 107.07 123.82 109.57Q124.59 112.06 124.88 113.98L124.88 113.98Q125.26 112.06 125.98 109.57Q126.70 107.07 127.47 104.96L127.47 104.96L137.94 75.20L148.88 75.20L122.86 145.28Z M180 128.86L180 128.86Q170.21 128.86 164.40 123.20Q158.59 117.54 158.59 107.74L158.59 107.74L158.59 95.46Q158.59 85.57 164.35 79.95Q170.11 74.34 180 74.34L180 74.34Q189.89 74.34 195.65 79.95Q201.41 85.57 201.41 95.46L201.41 95.46L201.41 107.74Q201.41 117.54 195.60 123.20Q189.79 128.86 180 128.86ZM180 119.74L180 119.74Q185.18 119.74 188.11 116.82Q191.04 113.89 191.04 108.42L191.04 108.42L191.04 94.78Q191.04 89.31 188.11 86.38Q185.18 83.46 180 83.46L180 83.46Q174.82 83.46 171.89 86.38Q168.96 89.31 168.96 94.78L168.96 94.78L168.96 108.42Q168.96 113.89 171.89 116.82Q174.82 119.74 180 119.74Z M235.60 128.96L235.60 128.96Q225.90 128.96 220.05 123.30Q214.19 117.63 214.19 107.84L214.19 107.84L214.19 95.36Q214.19 85.57 220.05 79.90Q225.90 74.24 235.60 74.24L235.60 74.24Q242.13 74.24 246.93 76.78Q251.73 79.33 254.37 83.94Q257.01 88.54 257.01 94.69L257.01 94.69L257.01 104.19L224.18 104.19L224.18 108.51Q224.18 114.08 227.25 117.15Q230.32 120.22 235.60 120.22L235.60 120.22Q239.92 120.22 242.80 118.64Q245.68 117.06 246.26 114.27L246.26 114.27L256.53 114.27Q255.47 120.99 249.76 124.98Q244.05 128.96 235.60 128.96ZM224.18 94.69L224.18 94.69L224.18 96.90L247.02 96.90L247.02 94.59Q247.02 88.74 244.05 85.57Q241.07 82.40 235.60 82.40L235.60 82.40Q230.13 82.40 227.15 85.62Q224.18 88.83 224.18 94.69Z M301.38 138.56L276.13 138.56L276.13 129.15L291.01 129.15L291.01 57.73L276.13 57.73L276.13 48.32L301.38 48.32L301.38 138.56Z" fill="#e8863a"></path>
  </g>
</svg>
